<svg width="233" height="110" viewBox="0 0 233 110" fill="none" xmlns="http://www.w3.org/2000/svg">
<path opacity="0.2" d="M204.337 109.897C215.339 109.897 224.258 108.21 224.258 106.128C224.258 104.046 215.339 102.359 204.337 102.359C193.335 102.359 184.416 104.046 184.416 106.128C184.416 108.21 193.335 109.897 204.337 109.897Z" fill="#333333"/>
<path d="M224.767 25.3374L222.852 68.9125" stroke="#CFBA6D" stroke-width="0.90833" stroke-miterlimit="10"/>
<path d="M224.767 27.8169C226.323 27.8169 227.584 26.5554 227.584 24.9993C227.584 23.4431 226.323 22.1816 224.767 22.1816C223.211 22.1816 221.949 23.4431 221.949 24.9993C221.949 26.5554 223.211 27.8169 224.767 27.8169Z" fill="#F2CC8F"/>
<path opacity="0.3" d="M225.556 26.7475C226.156 26.7475 226.714 26.6177 227.215 26.3897C226.731 27.2411 225.817 27.8167 224.767 27.8167C223.211 27.8167 221.949 26.5551 221.949 24.999C221.949 24.8834 221.958 24.7699 221.972 24.6582C222.708 25.8918 224.11 26.7475 225.556 26.7475Z" fill="#F2CC8F"/>
<path d="M205.489 39.8393C205.489 39.8393 211.38 39.8188 212.057 39.5554C212.735 39.292 208.404 35.1594 204.865 34.971C201.327 34.7825 205.489 39.8393 205.489 39.8393Z" fill="#333333"/>
<path opacity="0.3" d="M204.725 34.9666C201.44 34.92 205.489 39.8396 205.489 39.8396C205.489 39.8396 206.867 39.8346 208.366 39.8C206.367 39.0525 204.971 37.1623 204.725 34.9666Z" fill="#F2CC8F"/>
<path d="M204.004 36.7004C206.564 39.1973 204.972 41.9068 205.415 45.7738C205.858 49.6408 204.419 52.1756 201.23 51.7269C198.041 51.2782 196.045 51.0177 194.936 48.0918C194.936 48.0918 193.455 49.1207 192.64 47.6477C191.826 46.1748 192.044 42.7264 194.839 44.2644C194.839 44.2644 193.123 38.9746 197.182 37.5497C201.242 36.1248 204.004 36.7004 204.004 36.7004Z" fill="#EDB286"/>
<path opacity="0.3" d="M195.09 42.5641C197.213 41.4485 199.501 40.9373 201.954 41.0299C203.165 41.0299 204.342 41.1568 205.48 41.3976C205.577 39.6421 205.478 38.1359 204.006 36.7004C204.006 36.7004 201.244 36.1248 197.184 37.5497C194.522 38.4845 194.344 41.0822 194.536 42.7589C194.719 42.691 194.903 42.6252 195.09 42.5641Z" fill="#F2CC8F"/>
<path d="M203.075 43.3478C203.041 43.8298 202.758 44.2028 202.442 44.1809C202.125 44.1589 201.896 43.7509 201.929 43.269C201.962 42.7871 202.245 42.4141 202.562 42.436C202.878 42.4575 203.108 42.8659 203.075 43.3478Z" fill="#42210B"/>
<path d="M201.017 45.8647C201.648 47.0011 202.639 47.6711 203.941 47.5637C204.04 47.5626 204.067 47.7111 203.974 47.7447C202.62 48.3924 201.034 47.3505 200.862 45.9111C200.849 45.822 200.979 45.7838 201.017 45.8647Z" fill="#333333"/>
<path d="M225.9 59.3798C225.473 57.9192 222.061 57.7534 220.968 58.2088C219.875 58.6642 218.713 62.1345 220.383 63.6223C222.052 65.1102 227.206 63.8433 225.9 59.3798Z" fill="white"/>
<path opacity="0.3" d="M223.428 63.4819C220.679 63.4819 219.645 60.828 220.318 58.8232C219.52 59.9985 219.052 62.4371 220.382 63.6223C221.453 64.5762 223.954 64.3956 225.268 62.9682C224.777 63.2871 224.165 63.4819 223.428 63.4819Z" fill="#F2CC8F"/>
<path d="M197.442 58.3969C196.075 62.0285 200.529 68.1761 220.307 64.0315L220.381 58.2672C220.381 58.2672 214.213 59.5446 206.847 56.1811C199.452 52.8052 197.442 58.3969 197.442 58.3969Z" fill="#E07A5F"/>
<path opacity="0.3" d="M197.442 58.3969C196.075 62.0285 200.529 68.1761 220.307 64.0315L220.381 58.2672C220.381 58.2672 214.213 59.5446 206.847 56.1811C199.452 52.8052 197.442 58.3969 197.442 58.3969Z" fill="#F2CC8F"/>
<path d="M220.494 58.0195C220.744 58.2122 220.863 64.1253 220.613 64.3746C220.363 64.6242 214.378 66.1828 214.028 65.8486C213.678 65.5145 214.4 58.1789 214.653 58.1008C214.908 58.0223 220.09 57.7087 220.494 58.0195Z" fill="#1A1A1A"/>
<path d="M218.207 65.0992C218.207 65.0992 218.334 62.3802 218.165 62.2391C217.996 62.098 217.253 62.1182 217.123 62.2932C216.994 62.4682 217.17 64.9995 217.17 64.9995L218.207 65.0992Z" fill="#F1E1A6"/>
<path d="M217.673 64.3341C216.973 64.3854 216.437 64.862 216.477 65.3984C216.516 65.9348 217.116 66.3279 217.816 66.2767C218.516 66.2254 219.052 65.7488 219.013 65.2124C218.974 64.6757 218.374 64.2825 217.673 64.3341Z" fill="#CFBA6D"/>
<path d="M202.715 76.7197C202.715 76.7197 209.062 91.4082 223.525 99.3774L226.381 96.5764C226.381 96.5764 218.527 87.7314 212.149 72.6685L202.715 76.7197Z" fill="#ECB484"/>
<path opacity="0.3" d="M217.39 92.7914C218.557 91.6242 220.171 90.8142 221.828 90.5239C219.044 86.4246 215.405 80.3573 212.149 72.6685L202.715 76.7201C202.715 76.7201 206.899 86.4027 216.213 94.31C216.558 93.7421 216.957 93.2242 217.39 92.7914Z" fill="#F2CC8F"/>
<path d="M196.882 78.3004C196.882 78.3004 196.542 88.9532 190.164 96.2814L194.099 99.3779C194.099 99.3779 203.908 93.8272 206.69 80.053C209.472 66.2792 196.882 78.3004 196.882 78.3004Z" fill="#ECB484"/>
<path opacity="0.3" d="M196.883 78.3003C196.883 78.3003 196.623 86.4788 192.268 93.4336C194.474 93.7613 196.327 94.9829 197.566 96.6981C200.672 93.8119 204.993 88.4669 206.692 80.0533C209.474 66.2791 196.883 78.3003 196.883 78.3003Z" fill="#F2CC8F"/>
<path d="M189.695 95.9375C190.461 95.9333 194.904 98.9443 194.777 99.9184C194.65 100.892 189.695 102.332 189.695 102.332C189.695 102.332 191.135 104.111 193.634 104.365C196.132 104.619 194.947 106.059 191.474 105.974C188.001 105.89 187.832 102.332 187.832 102.332L186.985 103.433C186.985 103.433 185.587 103.221 185.672 102.502C185.756 101.782 189.695 95.9375 189.695 95.9375Z" fill="#E07A5F"/>
<path d="M223.006 100.176C222.985 99.4099 225.895 94.9001 226.872 95.0051C227.848 95.1101 229.399 100.031 229.399 100.031C229.399 100.031 231.145 98.5518 231.343 96.0481C231.541 93.5445 233.007 94.6975 233 98.1714C232.994 101.645 229.441 101.894 229.441 101.894L230.561 102.717C230.561 102.717 230.38 104.118 229.659 104.05C228.938 103.982 223.006 100.176 223.006 100.176Z" fill="#E07A5F"/>
<path d="M196.019 80.8946C196.093 83.7896 191.408 90.4764 192.157 91.1493C192.907 91.8221 198.545 95.6545 209.312 93.4521C220.079 91.2497 223.021 86.2781 222.011 85.5211C221.002 84.7641 214.609 75.1748 214.609 75.1748L196.019 80.8946Z" fill="#1A1A1A"/>
<path opacity="0.3" d="M196.643 83.4615C199.313 83.5556 202.172 83.7475 204.747 83.2907C206.993 82.8919 209.555 82.0925 211.382 81.2729C213.292 80.4162 215.069 79.4347 216.716 78.2951C215.524 76.5474 214.608 75.1748 214.608 75.1748L196.019 80.8946C196.036 81.5706 195.792 82.4542 195.42 83.4187C195.785 83.4346 196.18 83.4452 196.643 83.4615Z" fill="#F2CC8F"/>
<path d="M193.683 52.2964C191.066 56.116 191.915 70.6872 195.451 81.5093C195.451 81.5093 204.01 83.8436 215.964 75.9922C215.964 75.9922 210.306 57.46 200.049 52.9328L193.683 52.2964Z" fill="#E07A5F"/>
<path opacity="0.3" d="M195.168 73.0085C196.06 71.9329 196.775 70.7354 197.419 69.4993C198.017 68.3537 198.547 67.1717 199.006 65.9642C199.493 64.6808 199.908 63.3616 200.162 62.0109C200.368 60.9163 200.482 59.7555 200.265 58.6523C200.257 58.6591 200.252 58.6672 200.242 58.6729C199.315 59.2138 198.393 59.7643 197.476 60.3226C195.709 61.3993 193.962 62.5074 192.227 63.6342C192.395 67.0561 192.873 70.857 193.638 74.5784C194.189 74.0986 194.701 73.5717 195.168 73.0085Z" fill="#F2CC8F"/>
<path d="M192.617 49.0068C191.888 49.3268 191.573 52.6281 192.158 53.034C192.742 53.4399 201.436 54.1153 201.912 53.9335C202.389 53.7518 202.763 52.5655 202.482 52.066C202.201 51.5667 193.897 48.445 192.617 49.0068Z" fill="#1A1A1A"/>
<path d="M206.539 66.2102C206.539 66.2102 210.28 63.4042 210.644 63.5082C211.008 63.6121 211.697 64.6891 211.573 65.0409C211.449 65.3931 207.682 67.587 207.682 67.587L206.539 66.2102Z" fill="#F1E1A6"/>
<path d="M208.138 66.2286C208.741 67.2734 208.582 68.495 207.782 68.9568C206.982 69.4189 205.844 68.9462 205.241 67.9014C204.638 66.8565 204.797 65.635 205.597 65.1732C206.398 64.7114 207.535 65.1838 208.138 66.2286Z" fill="#CFBA6D"/>
<path d="M203.521 61.3528C203.521 61.3528 207.263 58.5468 207.626 58.6508C207.99 58.7547 208.68 59.8317 208.556 60.1835C208.432 60.5357 204.665 62.7296 204.665 62.7296L203.521 61.3528Z" fill="#F1E1A6"/>
<path d="M205.121 61.3718C205.724 62.4166 205.564 63.6382 204.764 64.1C203.964 64.5621 202.826 64.0894 202.223 63.0446C201.62 61.9998 201.779 60.7782 202.58 60.3164C203.38 59.8543 204.517 60.327 205.121 61.3718Z" fill="#CFBA6D"/>
<path d="M221.032 86.9194C219.735 85.3983 218.561 83.7736 217.527 82.063L217.639 81.9824C217.971 82.3586 218.28 82.7507 218.587 83.145C219.494 84.3376 220.367 85.557 221.128 86.8494L221.032 86.9194Z" fill="black"/>
<path d="M219.288 88.1158C218.774 87.7386 218.384 87.2556 218.129 86.6715L218.237 86.5859C218.502 86.7691 218.71 86.9982 218.903 87.239C219.091 87.484 219.265 87.7404 219.381 88.0416L219.288 88.1158Z" fill="black"/>
<path d="M202.854 92.9842C202.623 90.4191 202.552 87.8398 202.645 85.2657L202.783 85.2622C202.849 85.9043 202.888 86.5467 202.924 87.1895C203.013 89.1186 203.06 91.0506 202.974 92.9811L202.854 92.9842Z" fill="black"/>
<path d="M200.862 92.9745C200.819 92.016 200.938 91.0748 201.223 90.1587L201.36 90.1767C201.392 90.6579 201.35 91.13 201.29 91.5992C201.223 92.0676 201.138 92.5336 200.981 92.9901L200.862 92.9745Z" fill="black"/>
<path d="M182.549 69.5303C182.069 70.8735 178.711 72.7209 178.183 73.3687C177.655 74.0164 178.063 75.9116 179.647 75.9116C179.647 75.9116 178.759 77.4231 180.006 77.8308C181.254 78.2384 182.189 75 183.101 75.36C184.012 75.7199 183.269 77.8541 184.3 77.8665C185.332 77.8788 185.452 73.1692 185.452 73.1692L182.549 69.5303Z" fill="white"/>
<path opacity="0.3" d="M179.655 75.8579C179.718 75.7674 179.787 75.6818 179.856 75.5955C179.807 75.5977 179.763 75.6065 179.713 75.6065C179.172 75.6065 178.715 75.4782 178.338 75.2632C178.61 75.633 179.034 75.9035 179.624 75.9102C179.634 75.8929 179.643 75.8745 179.655 75.8579Z" fill="#F2CC8F"/>
<path opacity="0.3" d="M182.551 69.5303C182.417 69.9072 182.051 70.324 181.589 70.743C181.677 70.8452 181.761 70.9495 181.835 71.0595C182.173 71.5131 182.354 72.0753 182.386 72.6481C182.429 73.1296 182.379 73.6243 182.226 74.1044C182.044 74.6797 181.737 75.2118 181.386 75.6998C181.2 75.9589 180.981 76.1912 180.791 76.4472C180.624 76.6739 180.557 76.9436 180.41 77.1816C180.154 77.5974 179.66 77.5345 179.395 77.2686C179.473 77.5051 179.651 77.7134 180.008 77.8304C181.256 78.2384 182.191 74.9997 183.103 75.3596C184.015 75.7196 183.271 77.8537 184.302 77.8661C185.334 77.8785 185.454 73.1689 185.454 73.1689L182.551 69.5303Z" fill="#F2CC8F"/>
<path d="M198.942 54.3074C202.385 56.0954 203.18 63.6452 185.696 73.7776L181.789 69.5393C181.789 69.5393 187.232 66.3674 190.465 58.9431C193.71 51.4901 198.942 54.3074 198.942 54.3074Z" fill="#E07A5F"/>
<path d="M181.542 69.4314C181.484 69.7422 185.347 74.2205 185.7 74.2389C186.052 74.2577 191.547 71.4174 191.584 70.9348C191.621 70.4522 186.182 65.4774 185.941 65.5888C185.7 65.7001 181.635 68.93 181.542 69.4314Z" fill="#1A1A1A"/>
<path d="M187.974 73.1686C187.974 73.1686 186.063 71.2307 186.094 71.0126C186.126 70.7948 186.693 70.3125 186.906 70.3563C187.118 70.4002 188.679 72.401 188.679 72.401L187.974 73.1686Z" fill="#F1E1A6"/>
<path d="M187.858 72.2433C188.414 71.8133 189.131 71.8098 189.46 72.2351C189.789 72.6605 189.606 73.3535 189.05 73.7834C188.495 74.213 187.778 74.2169 187.449 73.7916C187.119 73.3662 187.303 72.6732 187.858 72.2433Z" fill="#CFBA6D"/>
<path d="M220.721 58.2521C222.452 57.5396 224.499 57.8356 224.947 59.9499C225.144 60.8183 225.062 62.0675 224.043 62.3571C223.053 62.5922 222.145 61.6534 222.295 60.7112L222.501 60.7186C222.51 61.4441 223.217 62.1046 223.911 61.8974C224.676 61.5682 224.524 60.463 224.333 59.7947C223.901 58.2089 222.142 58.1191 220.78 58.4211L220.721 58.2521Z" fill="#E6E6E6"/>
<path d="M192.226 40.1294C192.226 40.1294 189.139 43.8034 189.139 48.2651C189.139 52.7269 189.891 53.2792 190.394 53.5804C190.896 53.8817 192.351 52.175 195.362 52.5766V51.4519L196.065 52.7272V51.4519L196.818 52.9281L198.865 52.8149C198.865 52.8149 195.764 50.6836 194.936 48.0919C194.936 48.0919 193.384 48.979 192.597 46.813C191.81 44.647 193.348 43.6199 194.875 44.4483C194.875 44.4483 195.85 47.7383 198.98 39.8398L192.226 40.1294Z" fill="#42210B"/>
<path opacity="0.3" d="M191.023 43.4592C193.146 42.3437 195.434 41.8324 197.886 41.9247C197.953 41.9247 198.019 41.9265 198.086 41.9272C198.362 41.3374 198.659 40.648 198.98 39.8394L192.226 40.1293C192.226 40.1293 190.994 41.597 190.086 43.8029C190.392 43.6785 190.704 43.5628 191.023 43.4592Z" fill="#F2CC8F"/>
<path d="M203.951 38.7758C203.951 38.7758 205.662 23.6539 203.951 22.2774C202.24 20.9009 190 23.6539 188.869 24.8337C187.739 26.0136 191.356 40.957 191.356 40.957L203.951 38.7758Z" fill="#E07A5F"/>
<path opacity="0.3" d="M203.583 35.5841C201.787 37.3803 199.119 38.4848 196.58 38.4848C194.21 38.4848 192.076 37.609 190.275 36.1799C190.851 38.8624 191.358 40.9567 191.358 40.9567L203.952 38.7755C203.952 38.7755 204.147 37.0521 204.339 34.7168C204.099 35.0279 203.847 35.3203 203.583 35.5841Z" fill="#F2CC8F"/>
<path d="M191.113 41.7482C191.113 41.7482 198.638 40.022 205.486 39.8396C205.486 39.8396 206.237 35.8552 204.731 34.4624C203.225 33.0697 198.802 39.9584 191.113 40.4102V41.7482Z" fill="white"/>
<path opacity="0.2" d="M149.005 109.897C160.007 109.897 168.926 108.21 168.926 106.128C168.926 104.046 160.007 102.359 149.005 102.359C138.003 102.359 129.084 104.046 129.084 106.128C129.084 108.21 138.003 109.897 149.005 109.897Z" fill="#333333"/>
<path d="M155.362 37.7263C154.659 38.1333 158.641 47.416 159.48 47.3623C160.32 47.3085 161.878 46.9192 161.839 46.4479C161.8 45.9766 158.18 36.4181 157.567 36.4248C156.953 36.4312 155.362 37.7263 155.362 37.7263Z" fill="#F1E1A6"/>
<path d="M167.236 22.6128L122.438 55.3958C120.215 57.0222 119.751 60.1513 121.406 62.3527C122.951 64.4091 125.816 64.9359 127.992 63.5637L172.794 37.8412C174.745 36.6111 175.19 33.9565 173.747 32.1575C172.451 30.5424 170.113 30.2362 168.445 31.4638L146.983 44.7695" stroke="#F1E1A6" stroke-width="1.7941" stroke-miterlimit="10"/>
<path d="M151.779 33.923C151.779 33.923 173.415 17.0388 172.644 5.99316L183.759 20.0703C183.759 20.0703 169.056 20.1312 151.779 33.923Z" fill="#F1E1A6"/>
<path d="M172.646 5.99316L183.761 20.07" stroke="#CFBA6D" stroke-width="2.46688" stroke-miterlimit="10" stroke-linecap="round" stroke-linejoin="round"/>
<path d="M133.084 44.1479C133.084 44.1479 134.028 53.076 139.311 49.8493C144.595 46.6226 135.887 40.9258 135.887 40.9258L133.084 44.1479Z" fill="#42210B"/>
<path d="M142.105 34.7935C145.449 36.0607 145.071 39.1799 147.022 42.5484C148.972 45.9169 148.665 48.8155 145.561 49.6778C142.458 50.5399 140.525 51.0981 138.34 48.8583C138.34 48.8583 137.393 50.3931 136.058 49.3678C134.723 48.3424 133.546 45.0938 136.722 45.3879C136.722 45.3879 133.037 41.2232 136.19 38.2956C139.343 35.3687 142.105 34.7935 142.105 34.7935Z" fill="#EDB286"/>
<path opacity="0.3" d="M136.274 43.7297C137.775 41.8593 139.668 40.4768 141.954 39.5823C143.064 39.0989 144.193 38.7454 145.333 38.5116C144.721 36.8633 144.029 35.5222 142.106 34.7935C142.106 34.7935 139.344 35.3687 136.191 38.2963C134.123 40.2166 134.998 42.6693 135.844 44.1296C135.984 43.9941 136.127 43.8601 136.274 43.7297Z" fill="#F2CC8F"/>
<path d="M143.908 41.2583C144.07 41.7133 143.96 42.1684 143.661 42.2748C143.362 42.3812 142.989 42.0984 142.826 41.6433C142.665 41.1883 142.775 40.7332 143.074 40.6268C143.373 40.5207 143.746 40.8032 143.908 41.2583Z" fill="#42210B"/>
<g opacity="0.3">
<path d="M147.418 46.1064C147.157 44.8346 146.455 43.9111 145.202 43.5685C145.1 43.5324 145.124 43.3712 145.231 43.3666C146.733 43.1597 147.927 44.6872 147.597 46.1131C147.578 46.2097 147.431 46.2033 147.418 46.1064Z" fill="#F2CC8F"/>
</g>
<path d="M145.223 36.8587C145.223 36.8587 150.615 34.4876 151.131 33.9753C151.647 33.463 146.026 31.4037 142.707 32.6444C139.387 33.8851 145.223 36.8587 145.223 36.8587Z" fill="#333333"/>
<path opacity="0.3" d="M142.576 32.6968C139.546 33.9661 145.222 36.859 145.222 36.859C145.222 36.859 146.484 36.3043 147.845 35.6735C145.713 35.7867 143.679 34.6114 142.576 32.6968Z" fill="#F2CC8F"/>
<path d="M133.084 44.1476L136.723 45.3879C136.723 45.3879 137.208 46.1548 138.124 45.756C139.04 45.3571 137.027 41.348 140.606 40.1893C144.184 39.0303 145.452 38.8408 145.452 38.8408L145.667 39.4433C145.667 39.4433 147 38.0187 144.857 36.836C142.713 35.6529 135.6 41.68 135.6 41.68L133.084 44.1476Z" fill="#42210B"/>
<path d="M143.388 36.4979C143.388 36.4979 138.918 21.9508 136.8 21.372C134.681 20.7932 124.559 28.2048 123.994 29.7379C123.428 31.271 132.712 43.5269 132.712 43.5269L143.388 36.4979Z" fill="#E07A5F"/>
<path opacity="0.3" d="M141.775 33.7193C140.845 36.0833 138.841 38.1613 136.513 39.1753C134.34 40.1215 132.034 40.171 129.812 39.5798C131.411 41.8095 132.712 43.5271 132.712 43.5271L143.388 36.4981C143.388 36.4981 142.878 34.8402 142.123 32.6226C142.026 33.0034 141.911 33.3721 141.775 33.7193Z" fill="#F2CC8F"/>
<path d="M132.81 44.3485C132.81 44.3485 139.019 39.7612 145.225 36.8591C145.225 36.8591 144.322 32.9065 142.385 32.2308C140.449 31.5551 139.144 39.6371 132.275 43.1216L132.81 44.3485Z" fill="white"/>
<path d="M142.326 78.3975C142.326 78.3975 145.512 92.4026 167.041 99.3779L169.897 96.5769C169.897 96.5769 162.044 87.7319 155.665 72.6689L142.326 78.3975Z" fill="#1A1A1A"/>
<path opacity="0.3" d="M153.339 87.9564C154.061 85.7363 155.295 83.8154 157.041 82.1932C157.722 81.4602 158.456 80.8188 159.242 80.2662C158.039 77.9503 156.828 75.4134 155.665 72.6689L142.326 78.3979C142.326 78.3979 143.868 85.1656 152.039 91.6353C152.288 90.3586 152.721 89.132 153.339 87.9564Z" fill="#F2CC8F"/>
<path d="M140.399 78.3001C140.399 78.3001 140.06 88.9529 133.682 96.2811L137.617 99.3777C137.617 99.3777 152.002 94.0419 154.784 80.2681C157.566 66.494 140.399 78.3001 140.399 78.3001Z" fill="#333333"/>
<path opacity="0.3" d="M144.047 83.7636C145.958 83.6558 147.753 83.1198 149.547 82.495C151.241 81.9049 153.151 81.2289 154.788 80.224C157.522 66.522 140.395 78.3009 140.395 78.3009C140.395 78.3009 140.33 80.3276 139.729 83.2205C141.161 83.4758 142.574 83.8467 144.047 83.7636Z" fill="#F2CC8F"/>
<circle cx="146.093" cy="79.1017" r="0.462085" fill="#E6E6E6"/>
<path d="M146.226 80.9961C146.076 87.562 139.911 94.6373 136.129 97.613" stroke="#E6E6E6" stroke-width="0.92417" stroke-miterlimit="10" stroke-linecap="round"/>
<circle cx="135.368" cy="98.1808" r="0.462085" fill="#E6E6E6"/>
<path d="M133.211 95.9375C133.977 95.9333 138.42 98.9443 138.293 99.9184C138.166 100.892 133.211 102.332 133.211 102.332C133.211 102.332 134.651 104.111 137.149 104.365C139.648 104.619 138.462 106.059 134.989 105.974C131.517 105.89 131.347 102.332 131.347 102.332L130.5 103.433C130.5 103.433 129.102 103.221 129.187 102.502C129.272 101.782 133.211 95.9375 133.211 95.9375Z" fill="#E07A5F"/>
<path d="M166.524 100.176C166.502 99.4099 169.412 94.9001 170.389 95.0051C171.366 95.1101 172.917 100.031 172.917 100.031C172.917 100.031 174.663 98.5518 174.86 96.0481C175.058 93.5445 176.524 94.6975 176.518 98.1714C176.512 101.645 172.959 101.894 172.959 101.894L174.078 102.717C174.078 102.717 173.898 104.118 173.176 104.05C172.455 103.982 166.524 100.176 166.524 100.176Z" fill="#E07A5F"/>
<path d="M137.199 52.2964C134.582 56.116 135.431 70.6872 138.967 81.5093C138.967 81.5093 147.526 83.8436 159.48 75.9922C159.48 75.9922 153.821 57.46 143.565 52.9328L137.199 52.2964Z" fill="#E07A5F"/>
<path opacity="0.3" d="M138.294 61.2763C139.192 62.412 140.15 63.5059 141.233 64.4705C142.314 65.434 143.519 66.2536 144.835 66.861C146.334 67.5526 147.933 67.9401 149.577 68.06C151.202 68.1784 152.834 68.0621 154.448 67.8658C155.003 67.7983 155.557 67.7198 156.11 67.6388C155.063 65.4789 153.779 63.1449 152.269 60.9531H138.041C138.125 61.061 138.209 61.1692 138.294 61.2763Z" fill="#F2CC8F"/>
<path d="M136.131 49.0073C135.402 49.3273 135.087 52.6286 135.671 53.0345C136.256 53.4404 144.95 54.1158 145.426 53.934C145.902 53.7523 146.277 52.566 145.996 52.0664C145.715 51.5672 137.411 48.4455 136.131 49.0073Z" fill="#1A1A1A"/>
<path d="M150.053 66.2102C150.053 66.2102 153.794 63.4042 154.158 63.5082C154.522 63.6121 155.211 64.6891 155.087 65.0409C154.963 65.3931 151.196 67.587 151.196 67.587L150.053 66.2102Z" fill="#F1E1A6"/>
<path d="M151.656 66.2291C152.259 67.2739 152.1 68.4955 151.299 68.9573C150.499 69.4194 149.362 68.9467 148.758 67.9018C148.155 66.857 148.315 65.6354 149.115 65.1737C149.915 64.7119 151.053 65.1843 151.656 66.2291Z" fill="#CFBA6D"/>
<path d="M147.035 61.3528C147.035 61.3528 150.776 58.5468 151.14 58.6508C151.504 58.7547 152.193 59.8317 152.069 60.1835C151.945 60.5357 148.178 62.7296 148.178 62.7296L147.035 61.3528Z" fill="#F1E1A6"/>
<path d="M148.638 61.3718C149.241 62.4166 149.082 63.6382 148.282 64.1C147.482 64.5621 146.344 64.0894 145.741 63.0446C145.138 61.9998 145.297 60.7782 146.097 60.3164C146.898 59.8543 148.035 60.327 148.638 61.3718Z" fill="#CFBA6D"/>
<path d="M154.638 44.7843C154.347 43.6104 155.206 38.8216 156.833 39.9343C156.833 39.9343 157.463 36.2572 158.874 36.4297C160.285 36.6023 161.049 38.6611 162.655 40.2497C164.26 41.8383 162.144 45.1089 160.013 46.1781C157.881 47.2473 154.638 44.7843 154.638 44.7843Z" fill="white"/>
<path opacity="0.3" d="M158.457 43.9067C157.037 43.9067 155.765 43.4456 154.73 42.6794C154.574 43.5506 154.538 44.3808 154.638 44.7842C154.638 44.7842 157.881 47.2472 160.012 46.178C161.589 45.3871 163.156 43.3919 163.215 41.7637C161.99 43.0669 160.246 43.9067 158.457 43.9067Z" fill="#F2CC8F"/>
<path d="M136.965 57.8373C138.227 51.7156 151.889 54.7842 151.889 54.7842C151.889 54.7842 154.35 45.8317 155.157 45.4004C155.964 44.9687 159.948 44.7774 160.59 45.9912C161.233 47.2054 160.384 59.4471 155.458 62.2916C150.532 65.1365 135.702 63.9591 136.965 57.8373Z" fill="#E07A5F"/>
<path opacity="0.3" d="M160.064 53.2747C160.093 53.3008 160.119 53.3288 160.147 53.3553C160.86 49.8531 160.905 46.5882 160.589 45.991C159.947 44.7772 155.963 44.9689 155.156 45.4002C154.773 45.6053 154.017 47.7313 153.328 49.9083C155.87 50.2912 158.148 51.5156 160.064 53.2747Z" fill="#F2CC8F"/>
<path d="M157.603 49.7678C155.821 49.2806 153.023 48.949 153.023 48.949C153.443 47.081 153.696 44.4618 154.057 44.2687C154.864 43.837 161.418 44.2776 162.06 45.4917C162.31 45.9634 161.569 48.4119 160.994 50.6161C160.994 50.6161 159.384 50.2554 157.603 49.7678Z" fill="#1A1A1A"/>
<path d="M161.516 48.4876C161.516 48.4876 158.548 48.0357 158.432 47.8225C158.316 47.6093 158.5 46.8088 158.717 46.7073C158.934 46.6058 161.633 47.3448 161.633 47.3448L161.516 48.4876Z" fill="#F1E1A6"/>
<path d="M160.805 47.7441C161.012 46.9977 161.643 46.5214 162.215 46.6805C162.786 46.8393 163.081 47.573 162.874 48.319C162.667 49.0654 162.035 49.5417 161.464 49.3826C160.893 49.2242 160.597 48.4905 160.805 47.7441Z" fill="#CFBA6D"/>
<path opacity="0.2" d="M91.4738 109.897C102.476 109.897 111.395 108.21 111.395 106.128C111.395 104.046 102.476 102.359 91.4738 102.359C80.4717 102.359 71.5527 104.046 71.5527 106.128C71.5527 108.21 80.4717 109.897 91.4738 109.897Z" fill="#333333"/>
<path d="M118.57 41.6177L92.2793 45.8023L92.3931 46.5702L94.6769 46.1551L94.7575 46.7007L118.794 43.131C122.777 42.5413 125.118 44.7953 125.118 44.7953L124.629 41.4943L124.141 38.1934C124.141 38.1934 122.553 41.028 118.57 41.6177Z" fill="#333333"/>
<path d="M117.927 41.7148L117.369 41.7974L117.593 43.3104L118.151 43.2278L117.927 41.7148Z" fill="#E6E6E6"/>
<path d="M116.505 41.9253L115.846 42.0229L116.07 43.536L116.729 43.4384L116.505 41.9253Z" fill="#E6E6E6"/>
<path d="M125.116 44.7953L124.627 41.4943L124.139 38.1934" stroke="#030910" stroke-width="0.637458" stroke-miterlimit="10" stroke-linecap="round" stroke-linejoin="round"/>
<path d="M112.773 42.4763C112.816 42.7669 112.458 43.0607 111.974 43.1321C111.489 43.2039 111.062 43.0264 111.019 42.7358C110.976 42.4451 111.334 42.1513 111.818 42.0799C112.302 42.0081 112.729 42.1856 112.773 42.4763Z" fill="#E6E6E6"/>
<path d="M109.47 42.9655C109.513 43.2561 109.155 43.55 108.671 43.6214C108.187 43.6932 107.76 43.5157 107.716 43.225C107.673 42.9344 108.031 42.6406 108.515 42.5692C108.999 42.4974 109.427 42.6749 109.47 42.9655Z" fill="#E6E6E6"/>
<path d="M106.165 43.4538C106.208 43.7444 105.85 44.0382 105.366 44.1097C104.882 44.1814 104.455 44.004 104.412 43.7133C104.369 43.4227 104.726 43.1289 105.21 43.0574C105.695 42.9857 106.122 43.1632 106.165 43.4538Z" fill="#E6E6E6"/>
<path d="M102.863 43.9431C102.906 44.2337 102.548 44.5275 102.064 44.5989C101.58 44.6707 101.152 44.4932 101.109 44.2026C101.066 43.9119 101.424 43.6181 101.908 43.5467C102.392 43.4749 102.82 43.6524 102.863 43.9431Z" fill="#E6E6E6"/>
<path d="M99.558 44.4317C99.6012 44.7223 99.2433 45.0161 98.7589 45.0876C98.2749 45.1593 97.8474 44.9818 97.8043 44.6912C97.7612 44.4006 98.119 44.1068 98.603 44.0353C99.0874 43.9639 99.5149 44.1414 99.558 44.4317Z" fill="#E6E6E6"/>
<path d="M79.2081 48.4227C79.0066 51.8357 77.1287 55.9181 75.1172 55.7993C73.1058 55.6805 71.7222 51.4054 71.9238 47.9924C72.1253 44.5794 73.8363 43.3206 75.8477 43.4398C77.8592 43.5582 79.41 45.0097 79.2081 48.4227Z" fill="#CFBA6D"/>
<path opacity="0.3" d="M78.1309 44.4292C78.1536 44.5194 78.1755 44.6092 78.197 44.6976C78.3883 45.4761 78.4071 46.347 78.3501 47.1337C78.2695 48.246 77.8311 49.4506 77.1812 50.359C76.2206 51.7015 74.8126 52.4589 73.2329 52.8046C73.0239 52.8503 72.8135 52.8754 72.6035 52.886C73.1745 54.5209 74.0595 55.7368 75.1188 55.7994C77.1303 55.9182 79.0078 51.8359 79.2097 48.4228C79.3225 46.5153 78.8876 45.2212 78.1309 44.4292Z" fill="#F2CC8F"/>
<path d="M91.6097 38.5328C91.6097 38.5328 97.4167 37.5452 98.0419 37.174C98.667 36.8027 93.7159 33.4374 90.1947 33.8331C86.6734 34.2284 91.6097 38.5328 91.6097 38.5328Z" fill="#333333"/>
<path opacity="0.3" d="M90.0574 33.8516C86.8091 34.3452 91.611 38.5329 91.611 38.5329C91.611 38.5329 92.9698 38.3016 94.4431 38.0213C92.3479 37.6122 90.661 35.9772 90.0574 33.8516Z" fill="#F2CC8F"/>
<path d="M89.6298 35.6798C92.5648 37.7224 91.4401 40.6564 92.5122 44.3982C93.5842 48.1401 92.5808 50.8768 89.3611 50.9581C86.1415 51.0391 81.6352 52.8172 81.8947 49.0368C81.8947 49.0368 81.2639 49.664 80.2188 48.3452C79.174 47.026 78.8225 43.5886 81.8314 44.6468C81.8314 44.6468 79.2705 39.7106 83.0406 37.6383C86.8111 35.5656 89.6298 35.6798 89.6298 35.6798Z" fill="#EDB286"/>
<path opacity="0.3" d="M81.799 42.9284C83.7101 41.4795 85.8831 40.5991 88.3175 40.2876C89.5119 40.0889 90.6932 40.021 91.8557 40.0716C91.6634 38.3239 91.3179 36.8544 89.6307 35.6798C89.6307 35.6798 86.812 35.5656 83.0415 37.6379C80.5682 38.9974 80.8193 41.5891 81.2849 43.2113C81.4539 43.1144 81.6247 43.0193 81.799 42.9284Z" fill="#F2CC8F"/>
<path d="M89.3198 43.3196C89.6354 43.2891 89.8537 42.8745 89.8073 42.3937C89.7608 41.9128 89.4673 41.5476 89.1516 41.5781C88.836 41.6086 88.6177 42.0231 88.6641 42.504C88.7106 42.9849 89.0041 43.35 89.3198 43.3196Z" fill="#42210B"/>
<path d="M85.1886 39.6025C85.12 39.9211 85.0521 40.2231 84.9832 40.508C84.9616 40.6035 84.9397 40.6972 84.9156 40.7891C84.8934 40.8811 84.8711 40.9709 84.8481 41.0589C84.8272 41.1466 84.8039 41.2332 84.7824 41.317C84.7378 41.4874 84.6918 41.6508 84.6487 41.8078C83.1082 47.309 81.8958 44.822 81.8958 44.822C80.2538 44.2559 78.9053 45.5203 80.0378 47.5279C81.1702 49.5355 82.5541 48.4055 82.5541 48.4055C82.9042 50.9816 78.6974 50.7995 77.9647 46.3982C77.8498 45.7091 77.7865 45.1031 77.76 44.5717C77.7137 43.6181 77.788 42.9049 77.9078 42.3753C77.9078 42.3753 77.9078 42.3753 77.9075 42.3735C78.149 41.3138 78.574 40.9977 78.574 40.9977L85.1886 39.6025Z" fill="#CFBA6D"/>
<path opacity="0.3" d="M85.189 39.6025C85.1204 39.9211 85.0525 40.2231 84.9835 40.508C84.962 40.6035 84.94 40.6972 84.916 40.7891C84.8937 40.8811 84.8714 40.9709 84.8485 41.0589C84.8276 41.1466 84.8043 41.2332 84.7827 41.317C84.7381 41.4874 84.6922 41.6508 84.649 41.8078C84.5833 41.8187 84.5175 41.8279 84.4518 41.8389C82.017 42.1504 79.844 43.0315 77.934 44.4794C77.8753 44.5098 77.8166 44.5402 77.76 44.572C77.7137 43.6184 77.788 42.9053 77.9078 42.3756C77.9078 42.3756 77.9078 42.3756 77.9075 42.3739C78.2702 41.5133 78.5739 40.9981 78.5739 40.9981L85.189 39.6025Z" fill="#F2CC8F"/>
<path d="M89.9185 37.7361C89.9185 37.7361 89.1226 22.5385 87.209 21.4618C85.2955 20.3852 73.6735 25.1107 72.7521 26.4603C71.8307 27.8095 77.8535 41.9564 77.8535 41.9564L89.9185 37.7361Z" fill="#E07A5F"/>
<path opacity="0.3" d="M89.0331 34.649C87.5562 36.7156 85.1063 38.2434 82.6012 38.6606C80.2641 39.0499 78.0154 38.5365 76.0039 37.4224C77.0116 39.9741 77.8559 41.957 77.8559 41.957L89.9213 37.7371C89.9213 37.7371 89.8304 36.0049 89.6366 33.6699C89.4507 34.0154 89.2502 34.3452 89.0331 34.649Z" fill="#F2CC8F"/>
<path d="M77.7453 42.7756C77.7453 42.7756 84.8843 39.8371 91.6096 38.5324C91.6096 38.5324 91.6952 34.479 89.9814 33.3522C88.2673 32.2257 85.0353 39.7473 77.5254 41.4554L77.7453 42.7756Z" fill="white"/>
<g opacity="0.3">
<path d="M91.708 48.3027C91.9092 47.038 91.5691 45.9023 90.5246 45.1577C90.4313 45.0923 90.5069 44.9374 90.6148 44.9717C92.0945 45.3019 92.6807 47.1501 91.8735 48.3713C91.8219 48.4551 91.6857 48.3978 91.708 48.3027Z" fill="#F2CC8F"/>
</g>
<path d="M90.125 76.7202C90.125 76.7202 96.4724 91.4087 110.935 99.3779L113.791 96.5769C113.791 96.5769 105.937 87.7319 99.559 72.6689L90.125 76.7202Z" fill="#ECB484"/>
<path opacity="0.3" d="M104.8 92.7919C105.967 91.6247 107.582 90.8147 109.238 90.5244C106.454 86.4251 102.815 80.3578 99.559 72.6689L90.125 76.7205C90.125 76.7205 94.3092 86.4032 103.623 94.3105C103.968 93.7426 104.367 93.2246 104.8 92.7919Z" fill="#F2CC8F"/>
<path d="M84.2957 78.3005C84.2957 78.3005 83.9562 88.9533 77.5781 96.2815L81.5138 99.3781C81.5138 99.3781 91.3222 93.8274 94.1045 80.0532C96.8868 66.279 84.2957 78.3005 84.2957 78.3005Z" fill="#ECB484"/>
<path opacity="0.3" d="M84.2936 78.3003C84.2936 78.3003 84.0331 86.4788 79.6777 93.4336C81.884 93.7613 83.7375 94.9829 84.976 96.6981C88.0818 93.8119 92.4028 88.4669 94.1021 80.0533C96.8844 66.2791 84.2936 78.3003 84.2936 78.3003Z" fill="#F2CC8F"/>
<path d="M77.1071 95.9375C77.8733 95.9333 82.3163 98.9443 82.1894 99.9184C82.0624 100.892 77.1071 102.332 77.1071 102.332C77.1071 102.332 78.5472 104.111 81.0459 104.365C83.5446 104.619 82.3587 106.059 78.8859 105.974C75.4131 105.89 75.2438 102.332 75.2438 102.332L74.3966 103.433C74.3966 103.433 72.9989 103.221 73.0838 102.502C73.1686 101.782 77.1071 95.9375 77.1071 95.9375Z" fill="#E07A5F"/>
<path d="M110.418 100.176C110.397 99.4099 113.307 94.9001 114.284 95.0051C115.26 95.1101 116.811 100.031 116.811 100.031C116.811 100.031 118.557 98.5518 118.755 96.0481C118.953 93.5445 120.419 94.6975 120.413 98.1714C120.406 101.645 116.853 101.894 116.853 101.894L117.973 102.717C117.973 102.717 117.793 104.118 117.071 104.05C116.35 103.982 110.418 100.176 110.418 100.176Z" fill="#E07A5F"/>
<path d="M83.4313 80.8951C83.5052 83.7901 78.82 90.4769 79.5695 91.1497C80.3191 91.8226 85.9572 95.655 96.7242 93.4526C107.491 91.2502 110.433 86.2786 109.424 85.5216C108.414 84.7646 102.021 75.1753 102.021 75.1753L83.4313 80.8951Z" fill="#1A1A1A"/>
<path opacity="0.3" d="M84.0554 83.462C86.7256 83.556 89.5846 83.748 92.1593 83.2912C94.4056 82.8924 96.9665 82.093 98.7937 81.2734C100.704 80.4167 102.481 79.4351 104.128 78.2956C102.936 76.5479 102.02 75.1753 102.02 75.1753L83.4306 80.8951C83.448 81.5711 83.204 82.4547 82.832 83.4192C83.1969 83.4351 83.5926 83.4457 84.0554 83.462Z" fill="#F2CC8F"/>
<path d="M81.0953 52.2969C78.4781 56.1165 79.3271 70.6876 82.8635 81.5098C82.8635 81.5098 91.4225 83.8441 103.376 75.9927C103.376 75.9927 97.7178 57.4605 87.4614 52.9333L81.0953 52.2969Z" fill="#E07A5F"/>
<path opacity="0.3" d="M93.5154 60.2371C92.8871 60.2385 92.2581 60.2477 91.6305 60.2237C90.4032 60.1763 89.1763 60.0964 87.9565 59.9514C87.4123 59.8867 86.8643 59.8199 86.3261 59.7173C86.0864 59.6717 85.8502 59.6042 85.6141 59.543C84.9893 59.3818 84.3472 59.2149 83.698 59.2064C83.435 59.2029 83.1489 59.2223 82.912 59.3482C82.6882 59.467 82.5712 59.6703 82.538 59.9178C82.5309 59.9712 82.4902 59.9885 82.4492 59.9822C82.4835 60.2877 82.5373 60.5907 82.6122 60.8894C83.0747 62.7344 84.2114 64.3672 85.5582 65.6821C86.8958 66.9879 88.501 68.0405 90.2766 68.6405C91.3738 69.011 92.5307 69.1613 93.684 69.2083C94.8381 69.2553 96.0003 69.2355 97.1469 69.0906C98.2395 68.9523 99.3186 68.719 100.379 68.4216C99.158 65.8137 97.5747 62.8815 95.6481 60.2205C95.5604 60.2215 95.4727 60.2247 95.3851 60.2254C94.7617 60.2325 94.1384 60.236 93.5154 60.2371Z" fill="#F2CC8F"/>
<path d="M80.0274 49.0073C79.2987 49.3273 78.9833 52.6286 79.5677 53.0345C80.1522 53.4404 88.8462 54.1158 89.3225 53.934C89.7987 53.7523 90.1735 52.566 89.8924 52.0664C89.6113 51.5672 81.3073 48.4455 80.0274 49.0073Z" fill="#1A1A1A"/>
<path d="M93.9492 66.2112C93.9492 66.2112 97.6904 63.4052 98.0539 63.5092C98.4177 63.6131 99.1072 64.6901 98.9834 65.0419C98.8593 65.3941 95.0923 67.588 95.0923 67.588L93.9492 66.2112Z" fill="#F1E1A6"/>
<path d="M95.5523 66.2291C96.1555 67.2739 95.9961 68.4955 95.1959 68.9573C94.3958 69.4194 93.258 68.9467 92.6548 67.9018C92.0516 66.857 92.2111 65.6354 93.0112 65.1737C93.8113 64.7119 94.9491 65.1843 95.5523 66.2291Z" fill="#CFBA6D"/>
<path d="M90.9336 61.3528C90.9336 61.3528 94.6748 58.5468 95.0386 58.6508C95.4024 58.7547 96.0919 59.8317 95.9681 60.1835C95.844 60.5357 92.0771 62.7296 92.0771 62.7296L90.9336 61.3528Z" fill="#F1E1A6"/>
<path d="M92.5348 61.3728C93.1379 62.4176 92.9785 63.6392 92.1784 64.101C91.3782 64.5631 90.2404 64.0904 89.6372 63.0456C89.034 62.0007 89.1935 60.7791 89.9936 60.3174C90.7938 59.8553 91.9316 60.328 92.5348 61.3728Z" fill="#CFBA6D"/>
<path d="M108.446 86.9194C107.149 85.3983 105.975 83.7736 104.941 82.063L105.053 81.9824C105.385 82.3586 105.694 82.7507 106.001 83.145C106.908 84.3376 107.781 85.557 108.543 86.8494L108.446 86.9194Z" fill="black"/>
<path d="M106.698 88.1158C106.184 87.7386 105.794 87.2556 105.539 86.6715L105.647 86.5859C105.912 86.7691 106.12 86.9982 106.313 87.239C106.501 87.484 106.675 87.7404 106.791 88.0416L106.698 88.1158Z" fill="black"/>
<path d="M90.266 92.9842C90.0354 90.4191 89.964 87.8398 90.0574 85.2657L90.1953 85.2622C90.2614 85.9043 90.3003 86.5467 90.3356 87.1895C90.4254 89.1186 90.4718 91.0506 90.3858 92.9811L90.266 92.9842Z" fill="black"/>
<path d="M88.2741 92.975C88.2313 92.0165 88.3501 91.0753 88.6355 90.1592L88.7723 90.1772C88.8038 90.6584 88.762 91.1304 88.7019 91.5996C88.6348 92.0681 88.5499 92.5341 88.3929 92.9906L88.2741 92.975Z" fill="black"/>
<path d="M103.473 49.639C102.575 48.829 100.608 44.3785 102.58 44.3909C102.58 44.3909 102.253 42.4003 103.519 41.754C104.786 41.1076 105.362 40.9775 107.582 41.3961C109.801 41.8148 109.876 45.7097 108.708 47.788C107.539 49.8667 103.473 49.639 103.473 49.639Z" fill="white"/>
<path opacity="0.3" d="M105.151 47.1404C103.906 47.1404 102.776 46.7833 101.818 46.1808C102.091 47.5121 102.957 49.1746 103.472 49.6395C103.472 49.6395 107.538 49.8672 108.707 47.7889C109.071 47.1419 109.314 46.3187 109.41 45.479C108.232 46.5026 106.709 47.1404 105.151 47.1404Z" fill="#F2CC8F"/>
<path d="M82.1372 57.3145C84.5705 51.5569 97.3703 57.2325 97.3703 57.2325C97.3703 57.2325 101.531 48.9324 102.407 48.6668C103.283 48.4013 107.227 48.9907 107.62 50.3067C108.013 51.6227 104.792 63.4635 99.4054 65.2922C94.0187 67.1209 79.704 63.0721 82.1372 57.3145Z" fill="#E07A5F"/>
<path opacity="0.3" d="M105.683 57.3478C105.705 57.3789 105.725 57.4114 105.748 57.4429C107.131 54.1472 107.812 50.9537 107.619 50.3067C107.226 48.9907 103.281 48.4013 102.405 48.6668C101.989 48.7931 100.832 50.731 99.7324 52.7312C102.152 53.6031 104.146 55.2483 105.683 57.3478Z" fill="#F2CC8F"/>
<path d="M103.952 53.4279C102.3 52.6023 99.6211 51.7311 99.6211 51.7311C100.398 49.9809 101.156 47.4613 101.548 47.3425C102.425 47.0766 108.766 48.7876 109.159 50.1036C109.312 50.6149 108.108 52.8717 107.113 54.9214C107.113 54.9214 105.604 54.2535 103.952 53.4279Z" fill="#1A1A1A"/>
<path d="M108.039 52.9352C108.039 52.9352 105.217 51.9131 105.145 51.6811C105.073 51.4492 105.408 50.7003 105.641 50.643C105.874 50.5857 108.377 51.8374 108.377 51.8374L108.039 52.9352Z" fill="#F1E1A6"/>
<path d="M107.488 52.0686C107.837 51.377 108.55 51.0333 109.079 51.3006C109.609 51.5679 109.755 52.3451 109.406 53.0363C109.057 53.7276 108.345 54.0716 107.815 53.8043C107.286 53.537 107.139 52.7598 107.488 52.0686Z" fill="#CFBA6D"/>
<path opacity="0.2" d="M26.4718 109.897C37.4739 109.897 46.3928 108.21 46.3928 106.128C46.3928 104.046 37.4739 102.359 26.4718 102.359C15.4697 102.359 6.55078 104.046 6.55078 106.128C6.55078 108.21 15.4697 109.897 26.4718 109.897Z" fill="#333333"/>
<path d="M16.4304 78.3001C16.4304 78.3001 16.091 88.9529 9.71289 96.2811L13.6482 99.3777C13.6482 99.3777 28.0329 94.0419 30.8149 80.2681C33.5968 66.494 16.4304 78.3001 16.4304 78.3001Z" fill="#1A1A1A"/>
<path opacity="0.3" d="M16.4301 78.2997C16.4301 78.2997 16.3474 80.8759 15.5059 84.3656C17.8702 84.8179 19.9955 85.9984 21.7998 87.6549C23.0925 88.8415 23.9789 90.3485 24.5386 91.9788C27.3241 89.066 29.8164 85.21 30.8145 80.2674C33.5964 66.4936 16.4301 78.2997 16.4301 78.2997Z" fill="#F2CC8F"/>
<path d="M9.24222 95.9375C10.0084 95.9333 14.4514 98.9443 14.3245 99.9184C14.1976 100.892 9.24222 102.332 9.24222 102.332C9.24222 102.332 10.682 104.111 13.1807 104.365C15.6794 104.619 14.4935 106.059 11.0207 105.974C7.5479 105.89 7.37854 102.332 7.37854 102.332L6.53138 103.433C6.53138 103.433 5.1337 103.221 5.21856 102.502C5.30377 101.782 9.24222 95.9375 9.24222 95.9375Z" fill="#E07A5F"/>
<path d="M70.6183 54.8396C71.3597 42.4217 61.8941 31.754 49.4762 31.0125C37.0583 30.2711 26.3906 39.7367 25.6491 52.1546C24.9077 64.5725 34.3733 75.2402 46.7912 75.9817C59.2091 76.7231 69.8768 67.2575 70.6183 54.8396Z" fill="#F2CC8F"/>
<path d="M34.0274 35.9414C33.7587 36.1574 33.4935 36.3798 33.2323 36.61C32.9533 36.8565 32.6821 37.1082 32.418 37.3649L62.1913 71.1011C62.4788 70.8713 62.7627 70.6333 63.0417 70.3872C63.3026 70.1567 63.5561 69.9209 63.804 69.6815L34.0274 35.9414Z" fill="#E07A5F"/>
<path d="M48.1351 74.1648C59.5488 74.1648 68.8015 64.9121 68.8015 53.4984C68.8015 42.0847 59.5488 32.832 48.1351 32.832C36.7214 32.832 27.4688 42.0847 27.4688 53.4984C27.4688 64.9121 36.7214 74.1648 48.1351 74.1648Z" fill="#FBF3D6"/>
<path opacity="0.3" d="M38.7065 69.0833C39.4019 68.7173 40.02 68.2326 40.6147 67.7227C40.9311 67.4515 41.2593 67.2235 41.639 67.0481C42.0127 66.8759 42.4034 66.7462 42.7938 66.6178C43.1929 66.4866 43.595 66.3579 43.9758 66.1787C44.2986 66.0266 44.621 65.8453 44.8494 65.5656C45.6082 64.6353 45.3519 63.2157 44.9025 62.2098C44.4757 61.2548 43.7003 60.2217 42.6417 59.9346C41.9116 60.6438 40.9661 61.0858 40.0281 61.4599C39.5582 61.6473 39.0827 61.8205 38.6131 62.0097C38.0403 62.2409 37.4746 62.492 36.9053 62.732C35.7131 63.2345 34.518 63.7305 33.3254 64.233C32.7236 64.4865 32.1272 64.757 31.5169 64.9889C31.3687 65.0451 31.2217 65.1031 31.0742 65.1604C32.3598 67.0379 33.9456 68.6933 35.7651 70.0549C35.8846 70.027 36.0044 70.0008 36.124 69.9715C37.0111 69.7551 37.8943 69.5108 38.7065 69.0833Z" fill="#F2CC8F"/>
<path opacity="0.3" d="M48.1351 34.1077C59.3353 34.1077 68.4536 43.0178 68.7909 54.1362C68.7972 53.9245 68.8015 53.712 68.8015 53.4984C68.8015 42.0847 59.5488 32.832 48.1351 32.832C36.7214 32.832 27.4688 42.0847 27.4688 53.4984C27.4688 53.712 27.473 53.9241 27.4794 54.1362C27.8163 43.0178 36.9346 34.1077 48.1351 34.1077Z" fill="#F2CC8F"/>
<path d="M9.11599 44.1476C7.72857 47.5281 10.06 53.0757 15.3435 49.849C20.6266 46.6223 11.9195 40.9255 11.9195 40.9255C11.9195 40.9255 10.5034 40.7671 9.11599 44.1476Z" fill="#CFBA6D"/>
<path d="M18.1358 34.793C21.4799 36.0602 21.1027 39.1794 23.053 42.5479C25.0033 45.9164 24.696 48.815 21.5927 49.6773C18.4898 50.5394 16.5564 51.0977 14.3713 48.8578C14.3713 48.8578 13.4238 50.3926 12.0894 49.3673C10.7546 48.3419 9.5776 45.0933 12.7537 45.3874C12.7537 45.3874 9.06845 41.2227 12.2213 38.2951C15.3737 35.3682 18.1358 34.793 18.1358 34.793Z" fill="#EDB286"/>
<path opacity="0.3" d="M12.3011 43.7292C13.802 41.8588 15.6954 40.4763 17.9813 39.5818C19.0911 39.0984 20.2205 38.7449 21.3604 38.5111C20.7483 36.8628 20.056 35.5217 18.1333 34.793C18.1333 34.793 15.3712 35.3682 12.2187 38.2958C10.1507 40.2161 11.0247 42.6688 11.8712 44.1291C12.0112 43.9937 12.1537 43.8597 12.3011 43.7292Z" fill="#F2CC8F"/>
<path d="M19.9397 41.2583C20.1016 41.7133 19.9909 42.1684 19.6922 42.2748C19.3934 42.3812 19.02 42.0984 18.8577 41.6433C18.6958 41.1883 18.8065 40.7332 19.1052 40.6268C19.404 40.5207 19.7774 40.8032 19.9397 41.2583Z" fill="#42210B"/>
<path d="M21.254 36.8587C21.254 36.8587 26.6463 34.4876 27.1622 33.9753C27.6781 33.463 22.0573 31.4037 18.738 32.6444C15.4186 33.8851 21.254 36.8587 21.254 36.8587Z" fill="#333333"/>
<path opacity="0.3" d="M18.6073 32.6963C15.5768 33.9656 21.2534 36.8586 21.2534 36.8586C21.2534 36.8586 22.515 36.3038 23.8759 35.673C21.7438 35.7862 19.7097 34.6109 18.6073 32.6963Z" fill="#F2CC8F"/>
<path d="M9.11328 44.1476L12.7519 45.3879C12.7519 45.3879 13.2374 46.1548 14.1535 45.756C15.0692 45.3571 13.8957 41.9847 16.6897 40.4619C19.9924 38.6619 21.4816 38.8408 21.4816 38.8408L21.6959 39.4433C21.6959 39.4433 23.0296 38.0187 20.8859 36.836C18.7425 35.6529 11.629 41.68 11.629 41.68L9.11328 44.1476Z" fill="#CFBA6D"/>
<path d="M19.419 36.4979C19.419 36.4979 14.9488 21.9508 12.8309 21.372C10.713 20.7932 0.590175 28.2048 0.0248114 29.7379C-0.540552 31.271 8.74358 43.5269 8.74358 43.5269L19.419 36.4979Z" fill="#E07A5F"/>
<path opacity="0.3" d="M17.8062 33.7189C16.8767 36.0828 14.8722 38.1608 12.544 39.1748C10.3716 40.121 8.06561 40.1705 5.84375 39.5793C7.44226 41.809 8.74341 43.5266 8.74341 43.5266L19.4192 36.4976C19.4192 36.4976 18.9097 34.8397 18.1538 32.6221C18.0572 33.0029 17.9427 33.3716 17.8062 33.7189Z" fill="#F2CC8F"/>
<path d="M8.83698 44.3485C8.83698 44.3485 15.0464 39.7612 21.2524 36.8591C21.2524 36.8591 20.349 32.9065 18.4125 32.2308C16.4759 31.5551 15.1713 39.6371 8.30273 43.1216L8.83698 44.3485Z" fill="white"/>
<path d="M18.3574 78.3971C18.3574 78.3971 21.5428 92.4021 43.0726 99.3774L45.9284 96.5764C45.9284 96.5764 38.0748 87.7314 31.6967 72.6685L18.3574 78.3971Z" fill="#333333"/>
<circle cx="43.1183" cy="97.4054" r="0.462085" fill="#E6E6E6"/>
<path d="M41.6462 96.3328C37.7258 93.4049 27.1978 85.051 25.2344 78.4077" stroke="#E6E6E6" stroke-width="0.92417" stroke-miterlimit="10" stroke-linecap="round"/>
<circle cx="25.0226" cy="77.5221" r="0.462085" fill="#E6E6E6"/>
<path opacity="0.3" d="M29.3698 87.9559C30.0922 85.7358 31.3261 83.8149 33.0724 82.1927C33.7531 81.4597 34.4874 80.8183 35.2734 80.2657C34.0699 77.9498 32.8589 75.4129 31.6967 72.6685L18.3574 78.3974C18.3574 78.3974 19.8994 85.1652 28.0704 91.6348C28.3197 90.3581 28.7518 89.1315 29.3698 87.9559Z" fill="#F2CC8F"/>
<path d="M42.5509 100.176C42.5297 99.4099 45.4399 94.9001 46.4165 95.0051C47.3931 95.1101 48.9442 100.031 48.9442 100.031C48.9442 100.031 50.6902 98.5518 50.8878 96.0481C51.0855 93.5445 52.5517 94.6975 52.5454 98.1714C52.539 101.645 48.9863 101.894 48.9863 101.894L50.1061 102.717C50.1061 102.717 49.9257 104.118 49.2041 104.05C48.4824 103.982 42.5509 100.176 42.5509 100.176Z" fill="#E07A5F"/>
<path d="M13.23 52.2964C10.6129 56.116 11.4618 70.6872 14.9983 81.5093C14.9983 81.5093 23.5569 83.8436 35.5108 75.9922C35.5108 75.9922 29.8522 57.46 19.5958 52.9328L13.23 52.2964Z" fill="#E07A5F"/>
<path opacity="0.3" d="M21.7396 54.1187C21.049 53.6598 20.3352 53.2588 19.5966 52.9328L13.2305 52.2964C12.8865 52.7985 12.6029 53.4876 12.377 54.328C15.4134 54.9203 18.6055 54.7739 21.7396 54.1187Z" fill="#F2CC8F"/>
<path opacity="0.3" d="M26.7376 67.896C25.8738 67.8982 25.0093 67.8377 24.1565 67.6995C23.2888 67.5587 22.4671 67.3151 21.6758 66.9294C20.8693 66.5362 20.1166 66.0412 19.3843 65.5246C18.7231 65.0579 18.0595 64.5908 17.4393 64.0704C16.823 63.5531 16.2244 63.0125 15.5753 62.5355C15.0142 62.1232 14.3915 61.7212 13.6992 61.5791C13.7215 61.7499 13.7498 61.9196 13.7894 62.0875C14.0358 63.1369 14.5347 64.1124 15.034 65.0604C15.5534 66.0465 16.0332 67.0581 16.6169 68.0081C17.8106 69.9517 19.2546 71.779 21.1154 73.1257C22.884 74.4057 24.9089 75.2684 27.0576 75.6559C28.2042 75.8628 29.3661 75.9084 30.529 75.8691C31.6876 75.8299 32.842 75.6966 33.9813 75.4834C34.4087 75.4035 34.8327 75.3091 35.2552 75.2083C34.7835 73.8145 33.6645 70.7197 31.9404 67.2281C30.2387 67.6376 28.4899 67.8918 26.7376 67.896Z" fill="#F2CC8F"/>
<path d="M12.1621 49.0068C11.4334 49.3268 11.118 52.6281 11.7025 53.034C12.2869 53.4399 20.981 54.1153 21.4572 53.9335C21.9335 53.7518 22.3083 52.5655 22.0272 52.066C21.7461 51.5667 13.4421 48.445 12.1621 49.0068Z" fill="#1A1A1A"/>
<path opacity="0.3" d="M12.6922 51.6718C12.1837 51.594 11.7651 51.3419 11.4395 50.9922C11.3433 51.9072 11.4105 52.8318 11.7025 53.0344C12.287 53.4403 20.981 54.1157 21.4572 53.9339C21.6683 53.8533 21.8593 53.575 21.9823 53.2469C18.7878 53.382 15.8139 52.1498 12.6922 51.6718Z" fill="#F2CC8F"/>
<path d="M26.0859 66.2102C26.0859 66.2102 29.8271 63.4042 30.1909 63.5082C30.5548 63.6121 31.2442 64.6891 31.1205 65.0409C30.9964 65.3931 27.2294 67.587 27.2294 67.587L26.0859 66.2102Z" fill="#F1E1A6"/>
<path d="M27.6871 66.2286C28.2903 67.2734 28.1308 68.495 27.3307 68.9568C26.5306 69.4189 25.3928 68.9462 24.7896 67.9014C24.1864 66.8565 24.3458 65.635 25.146 65.1732C25.9461 64.7114 27.0839 65.1838 27.6871 66.2286Z" fill="#CFBA6D"/>
<path d="M23.0684 61.3528C23.0684 61.3528 26.8095 58.5468 27.1733 58.6508C27.5372 58.7547 28.2266 59.8317 28.1029 60.1835C27.9788 60.5357 24.2118 62.7296 24.2118 62.7296L23.0684 61.3528Z" fill="#F1E1A6"/>
<path d="M24.6695 61.3718C25.2727 62.4166 25.1133 63.6382 24.3131 64.1C23.513 64.5621 22.3752 64.0894 21.772 63.0446C21.1688 61.9998 21.3282 60.7782 22.1284 60.3164C22.9285 59.8543 24.0663 60.327 24.6695 61.3718Z" fill="#CFBA6D"/>
<path d="M37.752 57.7838L38.7773 58.8569L48.1375 49.7888L47.1117 48.7153L37.752 57.7838Z" fill="#CFBA6D"/>
<path opacity="0.3" d="M40.2185 55.394C40.4151 55.8565 40.7531 56.2511 41.2283 56.4823L38.7773 58.8569L37.752 57.7838L40.2185 55.394Z" fill="#F2CC8F"/>
<path opacity="0.3" d="M45.7539 50.0299L47.1109 48.7153L48.1363 49.7888L47.0798 50.8124C46.7284 50.4234 46.2609 50.1508 45.7539 50.0299Z" fill="#F2CC8F"/>
<path d="M46.9016 49.7717C47.4557 50.4057 48.7536 50.1776 49.8006 49.2626C50.8478 48.3475 51.2474 47.092 50.6937 46.458C50.1396 45.8241 48.8417 46.0521 47.7947 46.9672C46.7475 47.8819 46.3479 49.1378 46.9016 49.7717Z" fill="#E07A5F"/>
<path d="M34.9316 58.8364C35.5525 57.7983 39.5376 55.0075 39.9071 56.9434C39.9071 56.9434 42.0038 55.9848 42.8832 57.1021C43.7625 58.2191 43.7947 59.0121 43.8141 61.2707C43.8332 63.5294 40.0266 64.3574 37.7613 63.6135C35.4959 62.8696 34.9316 58.8364 34.9316 58.8364Z" fill="white"/>
<path opacity="0.3" d="M41.9183 62.2765C39.0388 62.2765 36.7596 60.3994 35.8704 57.8706C35.4274 58.2337 35.0816 58.5859 34.9316 58.8362C34.9316 58.8362 35.4959 62.8694 37.7613 63.6133C39.7593 64.2692 42.9546 63.7017 43.6681 62.0095C43.101 62.18 42.5126 62.2765 41.9183 62.2765Z" fill="#F2CC8F"/>
<path d="M13.1943 55.6362C18.4049 52.1843 25.9321 63.9905 25.9321 63.9905C25.9321 63.9905 33.9879 59.3749 34.8648 59.638C35.7417 59.901 38.7025 62.5734 38.3022 63.8872C37.902 65.2011 28.6709 73.2859 23.1714 71.8317C17.6726 70.3771 7.98366 59.0885 13.1943 55.6362Z" fill="#E07A5F"/>
<path opacity="0.3" d="M32.7979 68.6837C32.7997 68.7223 32.7983 68.7605 32.7993 68.799C35.774 66.8176 38.1076 64.5335 38.3045 63.8875C38.7047 62.5736 35.7439 59.9013 34.8667 59.6383C34.4502 59.5134 32.415 60.4886 30.3926 61.5472C31.9264 63.611 32.6788 66.085 32.7979 68.6837Z" fill="#F2CC8F"/>
<path d="M33.5225 64.4602C32.6025 62.8589 30.8516 60.6515 30.8516 60.6515C32.466 59.6226 34.4916 57.9428 34.8837 58.0606C35.7606 58.3236 40.0986 63.2556 39.6987 64.5695C39.5431 65.0801 37.2919 66.2946 35.3303 67.4525C35.3303 67.4525 34.4425 66.0619 33.5225 64.4602Z" fill="#1A1A1A"/>
<path d="M37.2027 66.311C37.2027 66.311 35.4161 63.8986 35.4843 63.6656C35.5526 63.4326 36.2463 62.9938 36.4719 63.0748C36.6974 63.1557 38.0912 65.5823 38.0912 65.5823L37.2027 66.311Z" fill="#F1E1A6"/>
<path d="M37.2205 65.283C37.8937 64.8998 38.6772 65.0069 38.9703 65.5224C39.2638 66.0379 38.9562 66.7663 38.283 67.1495C37.6098 67.5328 36.8262 67.4253 36.5328 66.9102C36.2397 66.3947 36.5476 65.666 37.2205 65.283Z" fill="#CFBA6D"/>
<path d="M19.3244 44.5483C20.2971 45.3845 21.4854 45.6726 22.6494 45.1182C22.7 45.096 22.7601 45.1204 22.7781 45.173C22.7908 45.2095 22.7795 45.2483 22.753 45.2731C22.5073 45.5004 22.2163 45.703 21.8747 45.801C20.8575 46.1492 19.6868 45.5662 19.1957 44.6462C19.1519 44.567 19.2604 44.4853 19.3244 44.5483Z" fill="#333333"/>
<path d="M46.9569 7.81055V14.986C46.7429 14.8718 46.499 14.8067 46.2398 14.8067C45.3976 14.8067 44.7148 15.4895 44.7148 16.3317C44.7148 17.1739 45.3976 17.8566 46.2398 17.8566C47.082 17.8566 47.7648 17.1739 47.7648 16.3317V7.8109L46.9569 7.81055Z" fill="#CFBA6D"/>
<path d="M157.768 9.30371V16.4791C157.554 16.3649 157.31 16.2999 157.05 16.2999C156.208 16.2999 155.525 16.9826 155.525 17.8248C155.525 18.667 156.208 19.3498 157.05 19.3498C157.893 19.3498 158.575 18.667 158.575 17.8248V9.30406L157.768 9.30371Z" fill="#E07A5F"/>
<path d="M55.1721 16.3312V23.5066C54.9581 23.3924 54.7142 23.3273 54.4547 23.3273C53.6124 23.3273 52.9297 24.0101 52.9297 24.8523C52.9297 25.6945 53.6124 26.3773 54.4547 26.3773C55.2969 26.3773 55.9796 25.6945 55.9796 24.8523V19.4539L60.0485 18.121V22.2645C59.8346 22.1503 59.5907 22.0852 59.3311 22.0852C58.4889 22.0852 57.8062 22.768 57.8062 23.6102C57.8062 24.4524 58.4889 25.1351 59.3311 25.1351C60.1734 25.1351 60.8561 24.4524 60.8561 23.6102V17.8561V15.0891V14.3911L55.1721 16.3312Z" fill="#E07A5F"/>
<path d="M197.959 1.94006V9.11548C197.745 9.00127 197.501 8.93622 197.242 8.93622C196.4 8.93622 195.717 9.61897 195.717 10.4612C195.717 11.3034 196.4 11.9861 197.242 11.9861C198.084 11.9861 198.767 11.3034 198.767 10.4612V5.06246L202.836 3.72949V7.87302C202.622 7.75882 202.378 7.69376 202.119 7.69376C201.276 7.69376 200.594 8.37651 200.594 9.21872C200.594 10.0609 201.276 10.7437 202.119 10.7437C202.961 10.7437 203.644 10.0609 203.644 9.21872V3.46502V0.697956V0L197.959 1.94006Z" fill="#F2CC8F"/>
<path d="M118.691 7.93322V15.1086C118.477 14.9944 118.233 14.9294 117.974 14.9294C117.132 14.9294 116.449 15.6121 116.449 16.4543C116.449 17.2966 117.132 17.9793 117.974 17.9793C118.816 17.9793 119.499 17.2966 119.499 16.4543V11.0556L123.568 9.72266V13.8662C123.354 13.752 123.11 13.6869 122.851 13.6869C122.009 13.6869 121.326 14.3697 121.326 15.2119C121.326 16.0541 122.009 16.7368 122.851 16.7368C123.693 16.7368 124.376 16.0541 124.376 15.2119V9.45818V6.69112V5.99316L118.691 7.93322Z" fill="#CFBA6D"/>
<path d="M32.8582 14.3267H32.0506V21.5021C31.8367 21.3879 31.5927 21.3228 31.3336 21.3228C30.4913 21.3228 29.8086 22.0056 29.8086 22.8478C29.8086 23.69 30.4913 24.3727 31.3336 24.3727C32.1758 24.3727 32.8585 23.69 32.8585 22.8478V17.0149C35.5432 16.9933 35.4654 21.5643 35.4654 21.5643C37.0848 19.0942 37.0848 14.3267 32.8582 14.3267Z" fill="#F2CC8F"/>
<path d="M214.268 11.084H213.461V18.2594C213.247 18.1452 213.003 18.0801 212.744 18.0801C211.902 18.0801 211.219 18.7629 211.219 19.6051C211.219 20.4473 211.902 21.1301 212.744 21.1301C213.586 21.1301 214.269 20.4473 214.269 19.6051V13.7722C216.954 13.7506 216.876 18.3216 216.876 18.3216C218.495 15.8516 218.495 11.084 214.268 11.084Z" fill="#CFBA6D"/>
<path d="M104.118 21.3535H103.31V28.5289C103.096 28.4147 102.852 28.3497 102.593 28.3497C101.751 28.3497 101.068 29.0324 101.068 29.8746C101.068 30.7169 101.751 31.3996 102.593 31.3996C103.436 31.3996 104.118 30.7169 104.118 29.8746V24.0417C106.803 24.0202 106.725 28.5912 106.725 28.5912C108.345 26.1215 108.345 21.3535 104.118 21.3535Z" fill="#F2CC8F"/>
</svg>
